{"title":"RED 2 Cam 70min.avi","uid":8743333,"size":338453750,"categoryP":"video","categoryS":"movies","magnet":"?xt=urn:btih:7cf5c1d23e1216dc54a094d6f8d567c3c4f33284&amp;dn=RED+2+Cam+70min.avi&amp;tr=udp%3A%2F%2Ftracker.openbittorrent.com%3A80&amp;tr=udp%3A%2F%2Fopen.demonii.com%3A1337&amp;tr=udp%3A%2F%2Ftracker.coppersurfer.tk%3A6969&amp;tr=udp%3A%2F%2Fexodus.desync.com%3A6969","seeders":1,"leechers":0,"uploader":"globeplus","files":-1,"time":1374850951,"description":"RED 2 Cam 70min.mp4\n\nPlot\n\nWhile trying to lead a normal life with girlfriend Sarah Ross (Mary-Louise Parker), Frank Moses (Bruce Willis) is approached by Marvin Boggs (John Malkovich), who is afraid that there are people following them, but Frank shrugs him off. After appealing a second time, Marvin drives off, but his car is blown up. Sarah convinces Frank, who does not believe Marvin is dead, to go to Marvin's funeral, and after the funeral, Frank is taken to be interrogated at a Yankee White Facility. During the interrogation, Jack Horton (Neal McDonough) appears, killing most of the facility's personnel, and tells Frank that he will torture Sarah in order to get information out of Frank. Frank manages to escape with the help of Marvin, who turns out to be alive, and they go on the run with Sarah. Marvin explains that he and Frank were being hunted down because they were listed as participants in a secret operation codenamed Nightshade. The operation was conducted during the Cold War era in order to smuggle a nuclear weapon into Russia piece by piece. Victoria (Helen Mirren) calls and tells them she has accepted a contract from MI6 to kill Frank. Meanwhile, top contract killer Han Cho-Bai (Lee Byung-hun) is hired to kill Frank as well.\n\n\nGeneral INFO :\n\nFormat                                   : AVI\nFormat/Info                              : Audio Video Interleave\nFile size                                : 323 MiB\nDuration                                 : 1h 10mn\nOverall bit rate                         : 641 Kbps\nWriting application                      : Lavf52.57.1\n\nVideo\n\nID                                       : 0\nFormat                                   : xvid\nCodec ID                                 : xvid\nDuration                                 : 1h 10mn\nBit rate                                 : 500 Kbps\nWidth                                    : 640 pixels\nHeight                                   : 400 pixels\nDisplay aspect ratio                     : 1.600\nFrame rate                               : 23.976 fps\nBits/(Pixel*Frame)                       : 0.081\nStream size                              : 252 MiB (78%)\n\nAudio\n\nID                                       : 1\nFormat                                   : MPEG Audio\nFormat version                           : Version 1\nFormat profile                           : Layer 3\nMode                                     : Joint stereo\nMode extension                           : MS Stereo\nCodec ID                                 : 55\nCodec ID/Hint                            : MP3\nDuration                                 : 1h 10mn\nBit rate mode                            : Constant\nBit rate                                 : 128 Kbps\nChannel(s)                               : 2 channels\nSampling rate                            : 48.0 KHz\nCompression mode                         : Lossy\nStream size                              : 64.5 MiB (20%)\nAlignment                                : Aligned on interleaves\nInterleave, duration                     : 24 ms (0.58 video frame)\nWriting library                          : LAME3.98.2\n\n\n\n\n* enjoy ...\n\n","torrent":{"xt":"urn:btih:7cf5c1d23e1216dc54a094d6f8d567c3c4f33284","amp;dn":"RED+2+Cam+70min.avi","amp;tr":["udp%3A%2F%2Ftracker.openbittorrent.com%3A80","udp%3A%2F%2Fopen.demonii.com%3A1337","udp%3A%2F%2Ftracker.coppersurfer.tk%3A6969","udp%3A%2F%2Fexodus.desync.com%3A6969"],"infoHash":"7cf5c1d23e1216dc54a094d6f8d567c3c4f33284","infoHashBuffer":{"type":"Buffer","data":[124,245,193,210,62,18,22,220,84,160,148,214,248,213,103,195,196,243,50,132]},"announce":[],"urlList":[]}}